name rise30.3154peak39.0474fall46.5389.mot
datacolumns 19
datarows 32
range 19.55992600000000 19.61159500000000
endheader
time	ground_force1_vx	ground_force1_vy	ground_force1_vz	ground_force1_px	ground_force1_py	ground_force1_pz	ground_force2_vx	ground_force2_vy	ground_force2_vz	ground_force2_px	ground_force2_py	ground_force2_pz	ground_torque1_x	ground_torque1_y	ground_torque1_z	ground_torque2_x	ground_torque2_y	ground_torque2_z	
19.55992600000000	-7.98031500000000	43.22217400000000	-13.02074200000000	0.33529400000000	0.00000000000000	0.11515700000000	-40.49993400000000	788.50025400000004	-63.43181000000000	0.17174100000000	0.00000000000000	-0.08654400000000	0.00000000000000	-9.47123300000000	0.00000000000000	0.00000000000000	-26.09299400000000	0.00000000000000	
19.56159200000000	-8.70080600000000	50.82243600000000	-14.57408700000000	0.33802900000000	0.00000000000000	0.11676100000000	-40.90563100000000	785.11405500000001	-63.03523100000000	0.17081800000000	0.00000000000000	-0.08642800000000	0.00000000000000	-10.67488100000000	0.00000000000000	0.00000000000000	-25.93081000000000	0.00000000000000	
19.56326000000000	-9.25617300000000	58.56260800000000	-15.96153200000000	0.34065500000000	0.00000000000000	0.11820000000000	-41.32991300000000	781.63723300000004	-62.62021500000000	0.16988800000000	0.00000000000000	-0.08631100000000	0.00000000000000	-11.77792300000000	0.00000000000000	0.00000000000000	-25.76882600000000	0.00000000000000	
19.56492900000000	-9.62447800000000	66.34695400000000	-17.14867100000000	0.34319200000000	0.00000000000000	0.11950000000000	-41.77283200000000	778.06881399999997	-62.18692000000000	0.16895000000000	0.00000000000000	-0.08619100000000	0.00000000000000	-12.75520200000000	0.00000000000000	0.00000000000000	-25.60721200000000	0.00000000000000	
19.56659400000000	-9.79303700000000	74.10217000000000	-18.11325300000000	0.34565600000000	0.00000000000000	0.12068300000000	-42.23432900000000	774.40762700000005	-61.73550400000000	0.16800600000000	0.00000000000000	-0.08606900000000	0.00000000000000	-13.58989400000000	0.00000000000000	0.00000000000000	-25.44611500000000	0.00000000000000	
19.56825800000000	-9.75824500000000	81.77978000000000	-18.84525800000000	0.34805900000000	0.00000000000000	0.12176400000000	-42.71423900000000	770.65230199999996	-61.26612200000000	0.16705700000000	0.00000000000000	-0.08594500000000	0.00000000000000	-14.27367400000000	0.00000000000000	0.00000000000000	-25.28566000000000	0.00000000000000	
19.56993100000000	-9.52468200000000	89.35607800000000	-19.34595900000000	0.35041000000000	0.00000000000000	0.12275900000000	-43.21228100000000	766.80128400000001	-60.77892300000000	0.16610300000000	0.00000000000000	-0.08581800000000	0.00000000000000	-14.80617800000000	0.00000000000000	0.00000000000000	-25.12594800000000	0.00000000000000	
19.57160100000000	-9.10371500000000	96.83003300000000	-19.62622500000000	0.35271700000000	0.00000000000000	0.12367800000000	-43.72806300000000	762.85283100000004	-60.27405500000000	0.16514800000000	0.00000000000000	-0.08569000000000	0.00000000000000	-15.19389200000000	0.00000000000000	0.00000000000000	-24.96705900000000	0.00000000000000	
19.57326900000000	-8.51177500000000	104.21967800000000	-19.70431700000000	0.35498600000000	0.00000000000000	0.12453100000000	-44.26107200000000	758.80502400000000	-59.75166300000000	0.16419000000000	0.00000000000000	-0.08555900000000	0.00000000000000	-15.44867600000000	0.00000000000000	0.00000000000000	-24.80904600000000	0.00000000000000	
19.57493000000000	-7.76853400000000	111.55755900000000	-19.60347900000000	0.35722100000000	0.00000000000000	0.12532500000000	-44.81068000000000	754.65578100000005	-59.21189000000000	0.16323300000000	0.00000000000000	-0.08542600000000	0.00000000000000	-15.58609100000000	0.00000000000000	0.00000000000000	-24.65193900000000	0.00000000000000	
19.57659300000000	-6.89511700000000	118.88576100000000	-19.34952700000000	0.35942600000000	0.00000000000000	0.12606700000000	-45.37614000000000	750.40286200000003	-58.65487700000000	0.16227700000000	0.00000000000000	-0.08529000000000	0.00000000000000	-15.62371500000000	0.00000000000000	0.00000000000000	-24.49574100000000	0.00000000000000	
19.57826500000000	-5.91252400000000	126.25101800000000	-18.96865000000000	0.36160500000000	0.00000000000000	0.12676300000000	-45.95658400000000	746.04388100000006	-58.08076400000000	0.16132400000000	0.00000000000000	-0.08515200000000	0.00000000000000	-15.57957600000000	0.00000000000000	0.00000000000000	-24.34043400000000	0.00000000000000	
19.57993200000000	-4.84032000000000	133.70025799999999	-18.48555900000000	0.36375800000000	0.00000000000000	0.12741700000000	-46.55102800000000	741.57632200000000	-57.48969200000000	0.16037500000000	0.00000000000000	-0.08501200000000	0.00000000000000	-15.47080900000000	0.00000000000000	0.00000000000000	-24.18597100000000	0.00000000000000	
19.58160000000000	-3.69567300000000	141.27687399999999	-17.92207000000000	0.36588900000000	0.00000000000000	0.12803400000000	-47.15836700000000	736.99755300000004	-56.88180300000000	0.15943100000000	0.00000000000000	-0.08487000000000	0.00000000000000	-15.31261000000000	0.00000000000000	0.00000000000000	-24.03228300000000	0.00000000000000	
19.58326100000000	-2.49273600000000	149.01787100000001	-17.29615100000000	0.36799800000000	0.00000000000000	0.12861600000000	-47.77738000000000	732.30483800000002	-56.25724400000000	0.15849500000000	0.00000000000000	-0.08472500000000	0.00000000000000	-15.11750900000000	0.00000000000000	0.00000000000000	-23.87927500000000	0.00000000000000	
19.58492800000000	-1.24237200000000	156.95196300000001	-16.62143000000000	0.37008700000000	0.00000000000000	0.12916700000000	-48.40673300000000	727.49536000000001	-55.61616300000000	0.15756800000000	0.00000000000000	-0.08457700000000	0.00000000000000	-14.89497200000000	0.00000000000000	0.00000000000000	-23.72682900000000	0.00000000000000	
19.58659900000000	0.04782200000000	165.09857800000000	-15.90711500000000	0.37215500000000	0.00000000000000	0.12969000000000	-49.04497600000000	722.56623200000001	-54.95871500000000	0.15665100000000	0.00000000000000	-0.08442700000000	0.00000000000000	-14.65129900000000	0.00000000000000	0.00000000000000	-23.57480200000000	0.00000000000000	
19.58827400000000	1.37325400000000	173.46769900000001	-15.15826200000000	0.37420400000000	0.00000000000000	0.13018700000000	-49.69055200000000	717.51452500000005	-54.28506400000000	0.15574700000000	0.00000000000000	-0.08427500000000	0.00000000000000	-14.38977200000000	0.00000000000000	0.00000000000000	-23.42302900000000	0.00000000000000	
19.58993000000000	2.73189300000000	182.06038699999999	-14.37629900000000	0.37623300000000	0.00000000000000	0.13066000000000	-50.34179700000000	712.33728399999995	-53.59537900000000	0.15485600000000	0.00000000000000	-0.08412000000000	0.00000000000000	-14.11100200000000	0.00000000000000	0.00000000000000	-23.27132100000000	0.00000000000000	
19.59159400000000	4.12371000000000	190.86982800000001	-13.55973800000000	0.37824300000000	0.00000000000000	0.13111000000000	-50.99694300000000	707.03155000000004	-52.88984200000000	0.15398000000000	0.00000000000000	-0.08396200000000	0.00000000000000	-13.81341600000000	0.00000000000000	0.00000000000000	-23.11946900000000	0.00000000000000	
19.59326500000000	5.55007900000000	199.88272400000000	-12.70496000000000	0.38023300000000	0.00000000000000	0.13153900000000	-51.65412600000000	701.59438499999999	-52.16864600000000	0.15312200000000	0.00000000000000	-0.08380100000000	0.00000000000000	-13.49381800000000	0.00000000000000	0.00000000000000	-22.96724200000000	0.00000000000000	
19.59492700000000	7.01317400000000	209.08086399999999	-11.80703000000000	0.38220200000000	0.00000000000000	0.13195000000000	-52.31138900000000	696.02289599999995	-51.43199900000000	0.15228200000000	0.00000000000000	-0.08363700000000	0.00000000000000	-13.14796400000000	0.00000000000000	0.00000000000000	-22.81439000000000	0.00000000000000	
19.59659300000000	8.51541200000000	218.44273500000000	-10.86045700000000	0.38415100000000	0.00000000000000	0.13234200000000	-52.96668700000000	690.31425400000001	-50.68012000000000	0.15146300000000	0.00000000000000	-0.08347100000000	0.00000000000000	-12.77112400000000	0.00000000000000	0.00000000000000	-22.66064400000000	0.00000000000000	
19.59827300000000	10.05898900000000	227.94502399999999	-9.85985900000000	0.38607900000000	0.00000000000000	0.13271700000000	-53.61789400000000	684.46572600000002	-49.91324900000000	0.15066600000000	0.00000000000000	-0.08330100000000	0.00000000000000	-12.35857600000000	0.00000000000000	0.00000000000000	-22.50571700000000	0.00000000000000	
19.59992700000000	11.64550500000000	237.56395300000000	-8.80050300000000	0.38798400000000	0.00000000000000	0.13307700000000	-54.26281000000000	678.47469100000001	-49.13164100000000	0.14989200000000	0.00000000000000	-0.08312900000000	0.00000000000000	-11.90600700000000	0.00000000000000	0.00000000000000	-22.34930600000000	0.00000000000000	
19.60159400000000	13.27570000000000	247.27635699999999	-7.67870200000000	0.38986700000000	0.00000000000000	0.13342100000000	-54.89916500000000	672.33866799999998	-48.33557200000000	0.14914400000000	0.00000000000000	-0.08295300000000	0.00000000000000	-11.40983300000000	0.00000000000000	0.00000000000000	-22.19109300000000	0.00000000000000	
19.60326600000000	14.94930500000000	257.06049300000001	-6.49207200000000	0.39172600000000	0.00000000000000	0.13375200000000	-55.52462900000000	666.05533500000001	-47.52534000000000	0.14842300000000	0.00000000000000	-0.08277400000000	0.00000000000000	-10.86739300000000	0.00000000000000	0.00000000000000	-22.03074600000000	0.00000000000000	
19.60492900000000	16.66498300000000	266.89656900000000	-5.23964700000000	0.39356100000000	0.00000000000000	0.13406800000000	-56.13681900000000	659.62255000000005	-46.70126500000000	0.14773100000000	0.00000000000000	-0.08259100000000	0.00000000000000	-10.27706300000000	0.00000000000000	0.00000000000000	-21.86792300000000	0.00000000000000	
19.60659200000000	18.42035700000000	276.76701700000001	-3.92188500000000	0.39537000000000	0.00000000000000	0.13437300000000	-56.73330400000000	653.03836999999999	-45.86369100000000	0.14706900000000	0.00000000000000	-0.08240500000000	0.00000000000000	-9.63827200000000	0.00000000000000	0.00000000000000	-21.70227000000000	0.00000000000000	
19.60826600000000	20.21210900000000	286.65653300000002	-2.54057000000000	0.39715200000000	0.00000000000000	0.13466400000000	-57.31161900000000	646.30106899999998	-45.01299000000000	0.14643800000000	0.00000000000000	-0.08221500000000	0.00000000000000	-8.95145100000000	0.00000000000000	0.00000000000000	-21.53342400000000	0.00000000000000	
19.60993200000000	22.03612100000000	296.55194299999999	-1.09865400000000	0.39890700000000	0.00000000000000	0.13494500000000	-57.86927100000000	639.40915099999995	-44.14956000000000	0.14584200000000	0.00000000000000	-0.08202200000000	0.00000000000000	-8.21791900000000	0.00000000000000	0.00000000000000	-21.36101900000000	0.00000000000000	
19.61159500000000	23.88764300000000	306.44193500000000	0.39995700000000	0.40063300000000	0.00000000000000	0.13521400000000	-58.40374400000000	632.36136499999998	-43.27383200000000	0.14528000000000	0.00000000000000	-0.08182400000000	0.00000000000000	-7.43975000000000	0.00000000000000	0.00000000000000	-21.18468100000000	0.00000000000000	
